<?xml version="1.0" standalone="no"?>
<!DOCTYPE svg PUBLIC "-//W3C//DTD SVG 20010904//EN"
 "http://www.w3.org/TR/2001/REC-SVG-20010904/DTD/svg10.dtd">
<svg version="1.0" xmlns="http://www.w3.org/2000/svg"
 width="512.000000pt" height="512.000000pt" viewBox="0 0 512.000000 512.000000"
 preserveAspectRatio="xMidYMid meet">
<metadata>
Created by potrace 1.11, written by Peter Selinger 2001-2013
</metadata>
<g transform="translate(0.000000,512.000000) scale(0.100000,-0.100000)"
fill="#000000" stroke="none">
<path d="M2468 4764 c-439 -551 -855 -1189 -1117 -1712 -256 -512 -371 -900
-371 -1257 0 -410 134 -752 404 -1033 224 -232 512 -400 836 -485 153 -40 338
-43 500 -8 490 106 939 372 1172 697 377 526 333 1155 -147 2114 -282 563
-748 1276 -1159 1774 l-24 29 -94 -119z m-120 -1855 l82 -21 43 21 c58 28 137
28 196 -1 l45 -22 85 22 c106 27 125 27 166 2 80 -50 85 -159 9 -219 -33 -26
-70 -26 -181 -1 -122 29 -133 22 -133 -77 0 -65 2 -73 19 -73 32 0 51 -11 51
-30 0 -27 -19 -30 -165 -30 -106 0 -135 3 -145 15 -18 21 4 45 41 45 l29 0 0
69 c0 63 -2 70 -26 85 -24 16 -30 16 -130 -9 -105 -26 -105 -26 -142 -8 -25
13 -44 34 -60 65 -20 40 -22 51 -12 86 14 53 69 102 113 102 18 0 70 -9 115
-21z m436 -445 c9 -4 16 -18 16 -34 0 -16 -7 -30 -16 -34 -9 -3 -107 -6 -219
-6 -221 0 -234 3 -221 55 l6 25 209 0 c115 0 216 -3 225 -6z m-68 -94 l61 0
11 -75 c19 -141 44 -157 238 -163 l144 -5 0 -148 0 -149 -115 0 c-148 0 -200
-12 -272 -62 -85 -60 -132 -78 -205 -79 -71 -1 -121 18 -180 70 -71 61 -130
78 -203 56 -74 -21 -121 -76 -155 -181 l-25 -79 -132 -3 -133 -3 0 34 c0 56
36 181 77 264 27 55 58 98 108 149 81 83 158 124 278 148 43 9 87 20 97 26 32
17 50 64 50 133 0 35 3 67 8 72 4 4 70 5 147 1 77 -3 167 -6 201 -6z m684
-390 l0 -220 -80 0 c-78 0 -80 0 -95 30 -9 17 -20 30 -25 30 -6 0 -10 63 -10
160 0 123 3 161 14 167 7 4 18 18 25 31 11 20 19 22 91 22 l80 0 0 -220z
m-1358 -465 c8 -19 8 -31 0 -50 -12 -25 -12 -25 -155 -25 -151 0 -167 4 -167
46 0 54 1 54 161 54 l149 0 12 -25z"/>
</g>
</svg>
